<svg data-v-0dd9719b="" version="1.0" xmlns="http://www.w3.org/2000/svg" xmlns:xlink="http://www.w3.org/1999/xlink" width="100%" height="100%" viewBox="0 0 340.000000 250.000000" preserveAspectRatio="xMidYMid meet" color-interpolation-filters="sRGB" style="margin: auto;"> <rect data-v-0dd9719b="" x="0" y="0" width="100%" height="100%" fill="#fff" fill-opacity="1" class="background"></rect> <rect data-v-0dd9719b="" x="0" y="0" width="100%" height="100%" fill="url(#watermark)" fill-opacity="1" class="watermarklayer"></rect> <g data-v-0dd9719b="" fill="#de0b0b" class="icon-text-wrapper icon-svg-group iconsvg" transform="translate(48.840003967285156,95)"><g class="iconsvg-imagesvg" transform="translate(0,0)"><g><rect fill="#de0b0b" fill-opacity="0" stroke-width="2" x="0" y="0" width="60" height="60" class="image-rect"></rect> <svg x="0" y="0" width="60" height="60" filtersec="colorsb8895981312" class="image-svg-svg primary" style="overflow: visible;"><svg xmlns="http://www.w3.org/2000/svg" viewBox="0 0 67.83999633789062 67.83999633789062"><g><g><path fill="#f83d11" d="M35.03 46.71h9.45v9.45h-9.45z"></path><path fill="#de0b0b" d="M46.71 46.71h9.45v9.45h-9.45z"></path><path fill="#ffa200" d="M23.35 35.03h32.81v9.46H23.35zM58.38 0h9.45v9.45h-9.45zM44.48 32.81v-9.46H32.8V11.68h-9.45v21.13h21.13z"></path><path fill="#de0b0b" d="M21.13 46.71V23.35h-9.45v32.82H32.8v-9.46H21.13z"></path><path fill="#226888" d="M58.38 46.71h9.45v9.45h-9.45z"></path><path fill="#b1971e" d="M35.03 58.39h9.45v9.45h-9.45z"></path><path fill="#f83d11" d="M46.71 58.39h21.13v9.45H46.71z"></path><path fill="#b1971e" d="M58.38 11.68h9.45v9.45h-9.45z"></path><path fill="#226888" d="M46.7 32.81h11.68v11.67h9.45V23.35H56.16V11.68H46.7v21.13z"></path><path fill="#b1971e" d="M21.13 21.13v-9.45H0v32.8h9.45V21.13h11.68z"></path><path fill="#226888" d="M0 0h21.13v9.45H0z"></path><path fill="#de0b0b" d="M23.35 0h9.45v9.45h-9.45z"></path><path fill="#226888" d="M0 58.39h32.81v9.45H0z"></path><path fill="#ffa200" d="M0 46.71h9.45v9.45H0z"></path><path fill="#f83d11" d="M35.03 21.13h9.45V9.45h11.68V0H35.03v21.13z"></path></g></g></svg></svg> <!----></g></g> <g transform="translate(67,1.9187488555908203)"><g data-gra="path-name" fill-rule="" class="tp-name iconsvg-namesvg" transform="translate(0,0)"><g transform="scale(1)"><g><path d="M8.41 4.54L8.41 4.54 5.67 3.46 14.71-19.26 4.05-19.26 4.05-22.23 15.88-22.23 17.82-27.04 20.56-25.92 19.08-22.23 34.65-22.23Q35.28-22.23 35.71-21.8 36.13-21.38 36.13-20.75L36.13-20.75 36.13 2.29Q36.13 2.92 35.71 3.35 35.28 3.78 34.65 3.78L34.65 3.78 23.49 3.78 23.49 0.81 33.16 0.81 33.16-19.26 17.91-19.26 8.41 4.54ZM33.34-29.25L33.34-25.15 30.38-25.15 30.38-29.25 14.63-29.25 14.63-25.15 11.65-25.15 11.65-29.25 2.65-29.25 2.65-32.17 11.65-32.17 11.65-36.27 14.63-36.27 14.63-32.17 30.38-32.17 30.38-36.27 33.34-36.27 33.34-32.17 42.3-32.17 42.3-29.25 33.34-29.25ZM43.24-3.78L40.32-3.33 38.16-17.05 41.09-17.5 43.24-3.78ZM8.64-15.97L4.63-3.55 1.8-4.5 5.85-16.88 8.64-15.97ZM55.13 4.32L55.13 4.32 52.34 3.28 56.07-6.88 56.07-36.27 59.04-36.27 59.04-6.61Q59.04-6.39 58.95-6.12L58.95-6.12 55.13 4.32ZM86.4-36.27L86.4 3.92 83.43 3.92 83.43-36.27 86.4-36.27ZM72.72-34.83L72.72 2.48 69.75 2.48 69.75-34.83 72.72-34.83ZM53.41-28.26L51.3-7.47 48.38-7.79 50.45-28.57 53.41-28.26ZM66.96-7.79L64.03-7.47 61.92-28.26 64.89-28.57 66.96-7.79ZM80.73-7.79L77.81-7.47 75.73-28.26 78.66-28.57 80.73-7.79ZM130.86 3.28L130.86 3.28 94.14 3.28Q93.33 3.28 92.92 2.65L92.92 2.65Q92.52 2.02 92.79 1.26L92.79 1.26 100.62-18.63 92.56-18.63 92.56-21.6 132.44-21.6 132.44-18.63 103.81-18.63 96.3 0.36 128.7 0.36 122.72-14.31 125.46-15.43 132.25 1.26Q132.57 2.02 132.12 2.65L132.12 2.65Q131.63 3.28 130.86 3.28L130.86 3.28ZM131-35.68L131-32.71 94.05-32.71 94.05-35.68 131-35.68ZM139.23 4.41L139.23 4.41 136.44 3.42 138.65-2.79 138.65-21.91Q138.65-22.54 139.07-22.97 139.5-23.4 140.13-23.4L140.13-23.4 145.89-23.4 143.41-28.71 146.12-29.97 148.81-24.12 147.19-23.4 166.19-23.4 169.65-30.02 172.26-28.66 169.51-23.4 176.99-23.4 176.99-20.43 141.62-20.43 141.62-2.52Q141.62-2.38 141.59-2.27 141.57-2.16 141.53-2.02L141.53-2.02 139.23 4.41ZM177.12-34.29L177.12-31.36 138.1-31.36 138.1-34.29 156.15-34.29 155.7-35.82 158.53-36.67 159.25-34.29 177.12-34.29ZM176.26-15.34L143.64-12.2 143.37-15.12 176-18.31 176.26-15.34ZM176.26-8.05L143.64-4.46 143.32-7.42 175.95-11.03 176.26-8.05ZM176.31-0.58L143.69 3.38 143.32 0.45 175.95-3.51 176.31-0.58Z" transform="translate(-1.7999999523162842, 36.66999816894531)"></path></g> <!----> <!----> <!----> <!----> <!----> <!----> <!----></g></g> <g data-gra="path-slogan" fill-rule="" class="tp-slogan iconsvg-slogansvg" fill="#de0b0b" transform="translate(36.609169006347656,47.209999084472656)"><!----> <!----> <g transform="scale(1, 1)"><g transform="scale(1)"><path d="M7.17-6.09L7.17-6.09L6.09-6.09Q6-7.73 3.94-7.83L3.94-7.83Q2.02-7.78 2.02-6.33L2.02-6.33Q2.02-5.39 3.05-5.25L3.05-5.25L5.48-4.69Q7.41-4.22 7.41-2.34L7.41-2.34Q7.36 0.05 4.03 0.14L4.03 0.14Q2.20 0.14 1.45-0.61L1.45-0.61Q0.52-1.31 0.56-2.77L0.56-2.77L1.69-2.77Q1.73-0.80 4.03-0.75L4.03-0.75Q6.28-0.80 6.33-2.20L6.33-2.20Q6.52-3.38 4.45-3.75L4.45-3.75L2.67-4.13Q0.84-4.64 0.84-6.19L0.84-6.19Q0.98-8.72 3.84-8.81L3.84-8.81Q7.08-8.81 7.17-6.09ZM14.53-3.19L14.53-8.58L15.70-8.58L15.70-3.05Q15.56 0.05 12.19 0.14L12.19 0.14Q9.05 0.05 8.91-2.86L8.91-2.86L8.91-8.58L10.08-8.58L10.08-3.19Q10.13-0.84 12.23-0.80L12.23-0.80Q14.53-0.84 14.53-3.19L14.53-3.19ZM18.33-1.03L23.63-1.03L23.63 0L16.88 0L16.88-0.94L22.13-7.59L17.25-7.59L17.25-8.58L23.63-8.58L23.63-7.59L18.33-1.03ZM25.92-5.06L30.42-5.06L30.42-8.58L31.59-8.58L31.59 0L30.42 0L30.42-3.98L25.92-3.98L25.92 0L24.75 0L24.75-8.58L25.92-8.58L25.92-5.06ZM40.17-4.27L40.17-4.27Q39.98-7.64 37.17-7.83L37.17-7.83Q34.31-7.69 34.17-4.27L34.17-4.27Q34.31-0.94 37.17-0.80L37.17-0.80Q39.98-0.98 40.17-4.27ZM41.34-4.27L41.34-4.27Q41.06 0 37.17 0.14L37.17 0.14Q33.23 0 32.95-4.27L32.95-4.27Q33.19-8.72 37.17-8.81L37.17-8.81Q41.06-8.67 41.34-4.27ZM48.38-3.19L48.38-8.58L49.55-8.58L49.55-3.05Q49.41 0.05 46.03 0.14L46.03 0.14Q42.89 0.05 42.75-2.86L42.75-2.86L42.75-8.58L43.92-8.58L43.92-3.19Q43.97-0.84 46.08-0.80L46.08-0.80Q48.38-0.84 48.38-3.19L48.38-3.19ZM61.59-8.58L58.36-3.47L58.36 0L57.19 0L57.19-3.47L53.95-8.58L55.31-8.58L57.75-4.45L60.23-8.58L61.59-8.58ZM68.30-3.19L68.30-8.58L69.47-8.58L69.47-3.05Q69.33 0.05 65.95 0.14L65.95 0.14Q62.81 0.05 62.67-2.86L62.67-2.86L62.67-8.58L63.84-8.58L63.84-3.19Q63.89-0.84 66-0.80L66-0.80Q68.30-0.84 68.30-3.19L68.30-3.19ZM72.66-8.58L76.97-1.64L76.97-8.58L78.09-8.58L78.09 0L76.78 0L72.42-6.94L72.38-6.94L72.38 0L71.25 0L71.25-8.58L72.66-8.58ZM86.81-8.58L83.58-3.47L83.58 0L82.41 0L82.41-3.47L79.17-8.58L80.53-8.58L82.97-4.45L85.45-8.58L86.81-8.58ZM93.52 0L92.67-2.48L89.20-2.48L88.31 0L87.14 0L90.38-8.58L91.69-8.58L94.78 0L93.52 0ZM90.94-7.31L89.58-3.52L92.25-3.52L90.98-7.31L90.94-7.31ZM97.22-8.58L101.53-1.64L101.53-8.58L102.66-8.58L102.66 0L101.34 0L96.98-6.94L96.94-6.94L96.94 0L95.81 0L95.81-8.58L97.22-8.58Z" transform="translate(-0.5602678571428572, 8.8125)"></path></g></g></g></g></g><defs v-gra="od"></defs></svg>